<?xml version="1.0" encoding="UTF-8" standalone="no"?>
<svg
   xmlns:dc="http://purl.org/dc/elements/1.1/"
   xmlns:cc="http://creativecommons.org/ns#"
   xmlns:rdf="http://www.w3.org/1999/02/22-rdf-syntax-ns#"
   xmlns:svg="http://www.w3.org/2000/svg"
   xmlns="http://www.w3.org/2000/svg"
   xmlns:sodipodi="http://sodipodi.sourceforge.net/DTD/sodipodi-0.dtd"
   xmlns:inkscape="http://www.inkscape.org/namespaces/inkscape"
   version="1.0"
   width="240.000000pt"
   height="240.000000pt"
   viewBox="0 0 240.000000 240.000000"
   preserveAspectRatio="xMidYMid meet"
   id="svg1943"
   sodipodi:docname="Paragliding_pictogram.svg"
   inkscape:version="1.0.1 (3bc2e813f5, 2020-09-07)">
  <defs
     id="defs1947" />
  <sodipodi:namedview
     pagecolor="#ffffff"
     bordercolor="#666666"
     borderopacity="1"
     objecttolerance="10"
     gridtolerance="10"
     guidetolerance="10"
     inkscape:pageopacity="0"
     inkscape:pageshadow="2"
     inkscape:window-width="1920"
     inkscape:window-height="1017"
     id="namedview1945"
     showgrid="false"
     inkscape:zoom="2.584375"
     inkscape:cx="158.96143"
     inkscape:cy="145.63438"
     inkscape:window-x="1912"
     inkscape:window-y="-8"
     inkscape:window-maximized="1"
     inkscape:current-layer="svg1943"
     inkscape:document-rotation="0" />
  <metadata
     id="metadata1933">
Created by potrace 1.13, written by Peter Selinger 2001-2015
<rdf:RDF>
  <cc:Work
     rdf:about="">
    <dc:format>image/svg+xml</dc:format>
    <dc:type
       rdf:resource="http://purl.org/dc/dcmitype/StillImage" />
    <dc:title />
  </cc:Work>
</rdf:RDF>
</metadata>
  <g
     id="g77">
    <g
       id="g65"
       transform="rotate(-4.5488519,195.01489,207.68426)">
      <path
         d="m 166.99874,220.76461 c 0.16787,-0.2518 1.5108,-3.86095 3.10554,-7.97369 1.59474,-4.19668 3.18948,-7.38616 3.60915,-7.21829 0.7554,0.5036 8.05762,11.91857 11.66676,18.29752 2.26621,4.11275 3.69308,5.53962 3.69308,3.69308 0,-0.41967 -1.09113,-5.20388 -2.518,-10.65957 -2.93768,-11.66677 -11.07924,-29.12495 -15.19198,-32.65016 -3.77702,-3.10555 -9.31663,-2.85374 -20.14406,0.92327 -16.11525,5.62355 -26.77482,12.33823 -26.77482,16.87065 0,3.35734 3.52521,6.12715 7.88976,6.12715 9.44113,0.94551 21.83839,-8.71775 29.29282,-9.23269 0.7554,0 0.5036,6.21108 -0.7554,16.03131 l -0.5036,3.94488 c -6.05252,34.79887 5.95928,6.79862 6.63075,1.84654 z m -7.55402,8.14156 c -51.87096,-80.96794 -25.93548,-40.48398 0,0 z"
         id="path1939"
         style="fill:#000000;stroke:none;stroke-width:0.0839336"
         sodipodi:nodetypes="ccccscccsccccccc" />
      <path
         d="m 120.8871,120.26704 c -10.65957,3.86095 -12.17037,15.77951 -2.85374,22.66206 1.67867,1.25901 3.60914,1.67868 6.88255,1.67868 5.11995,0 7.97369,-1.59474 11.16317,-6.21109 6.29502,-9.31663 -4.28062,-21.99059 -15.19198,-18.12965 z"
         id="path1986"
         style="fill:#000000;stroke:none;stroke-width:0.0839333" />
      <path
         d="m 145.09697,112.29099 c 7.58982,5.77622 15.90015,20.47127 14.75704,25.71998 -0.60727,2.78839 -3.8852,4.82333 -9.81591,6.02283 -9.35077,1.91496 -10.09616,2.18212 -11.8443,4.29253 -1.27721,1.52576 -1.57355,2.49203 -1.18538,3.86509 2.05131,7.14704 13.71877,8.39956 23.84486,2.53021 9.24511,-5.37402 11.57209,-10.53671 9.10091,-20.09451 -3.00875,-11.82243 -16.68304,-24.76504 -27.2202,-25.6855 -1.93984,-0.16477 -1.60123,0.25258 2.36298,3.34937 z"
         id="path1988"
         style="fill:#000000;stroke:none;stroke-width:0.0839333" />
      <path
         d="m 90.269012,155.26105 c -3.496167,-7.19383 -3.101156,-15.61185 0.960211,-23.65531 3.072406,-5.96167 9.780307,-14.36884 11.772817,-14.68792 0.82045,-0.13139 0.92597,0.15224 0.43379,0.83212 -0.39375,0.54391 -1.64507,3.99003 -2.85885,7.67056 -5.07536,15.59891 -2.882237,25.16522 6.11014,25.76879 1.64798,0.15683 5.9425,-0.05 9.54546,-0.44672 9.35317,-0.89676 13.05248,0.43423 13.74695,4.77088 0.84463,5.2743 -6.07473,10.10896 -14.93573,10.32585 -10.0026,0.21938 -22.010216,-4.95025 -24.774788,-10.57825 z"
         id="path1984"
         style="fill:#000000;stroke:none;stroke-width:0.0839333" />
    </g>
    <ellipse
       id="path2156"
       cx="127.95006"
       cy="126.97623"
       rx="47.95298"
       ry="0.74687755"
       style="stroke-width:0.911364"
       transform="matrix(0.89873343,0.4384954,-0.3191785,0.94769462,0,0)" />
    <ellipse
       id="path2156-8"
       cx="117.61391"
       cy="-183.07533"
       rx="55.17189"
       ry="0.77603316"
       style="stroke-width:0.996456"
       transform="matrix(-0.13958399,0.99021024,-0.99957931,-0.02900357,0,0)" />
    <g
       id="g63"
       transform="matrix(3.6853641,0,0,3.6853641,-266.35046,-529.46961)">
      <path
         style="fill:#000000;stroke-width:0.0884365"
         d="m 77.407093,184.66664 -2.642645,-0.72017 0.05388,-2.1667 c 0.133982,-5.38833 0.886269,-9.81708 2.486187,-14.63628 1.944722,-5.85781 4.847903,-10.96192 8.777731,-15.43222 2.862228,-3.25587 6.266593,-5.78135 8.869092,-6.5794 0.846606,-0.25962 3.817895,-0.66049 6.721202,-0.90679 2.49398,-0.21158 7.29157,-0.2131 9.16792,-0.003 3.21328,0.35997 5.36631,0.89642 7.34088,1.82905 2.71041,1.28019 4.32072,3.06019 4.85583,5.36754 0.18203,0.78492 0.17595,2.40163 -0.0125,3.32568 -0.1886,0.92461 -0.67491,2.32074 -1.06692,3.06286 -0.33158,0.62775 -0.33161,0.61118 -8.8e-4,-0.54646 0.73867,-2.58525 0.38805,-5.00186 -0.92753,-6.39291 -0.9673,-1.0228 -2.37252,-1.41955 -4.10144,-1.15801 -1.80729,0.2734 -3.80843,1.17038 -6.2495,2.80126 -3.43021,2.29171 -5.82364,4.31706 -9.36094,7.92131 -3.120814,3.17988 -5.737788,6.23266 -11.893712,13.87437 -5.289539,6.56621 -9.035986,11.0372 -9.273785,11.06727 -0.05511,0.007 -1.28939,-0.31141 -2.742845,-0.7075 z"
         id="path46" />
      <path
         style="fill:#999999;stroke-width:0.0625343"
         d="m 117.25985,160.83396 c -1.30696,-0.1663 -2.42014,-0.30395 -2.47372,-0.3059 -0.0655,-0.002 -0.25843,-0.37701 -0.58941,-1.14478 -0.93191,-2.16174 -2.29254,-4.72034 -3.26336,-6.13656 -0.18581,-0.27107 -0.32981,-0.50011 -0.31999,-0.50898 0.12882,-0.11643 1.63401,-1.04837 2.20545,-1.3655 4.16613,-2.31212 7.48981,-2.07901 8.78812,0.61636 0.46401,0.96331 0.52882,1.29226 0.52977,2.68898 9.1e-4,1.32766 -0.0851,1.85946 -0.51408,3.17742 -0.2358,0.72452 -0.96658,2.24936 -1.39175,2.90403 -0.21326,0.32839 -0.28106,0.38976 -0.42428,0.38406 -0.0937,-0.004 -1.23978,-0.14283 -2.54675,-0.30913 z"
         id="path59" />
    </g>
  </g>
</svg>
